<svg width="200" height="200" viewBox="0 0 200 200" fill="none" xmlns="http://www.w3.org/2000/svg">
<rect width="200" height="200" rx="99" fill="#1A1A1A"/>
<path d="M88.1264 41.0582C90.7347 40.5293 93.3753 40.1758 96.0306 40V48.0099C93.367 48.2048 90.7236 48.6162 88.1264 49.2402C76.6884 51.928 66.4926 58.4131 59.1947 67.6423C51.8968 76.8715 47.9254 88.3028 47.9254 100.08C47.9254 111.857 51.8968 123.289 59.1947 132.518C66.4926 141.747 76.6884 148.232 88.1264 150.92V95.6752H96.0306V159.975C81.5261 159.016 67.8627 152.808 57.581 142.508C47.2993 132.207 41.099 118.513 40.1327 103.974C39.1665 89.4338 43.5002 75.0369 52.328 63.4599C61.1559 51.8828 73.8771 43.9135 88.1264 41.0335V41.0582ZM159.988 99.9939C159.966 112.467 156.087 124.626 148.883 134.796C141.68 144.965 131.507 152.645 119.767 156.776V148.299C128.758 144.581 136.533 138.419 142.217 130.508C147.901 122.597 151.267 113.251 151.936 103.525H111.851V158.954C109.243 159.479 106.602 159.828 103.947 160V40C106.602 40.1758 109.243 40.5293 111.851 41.0582C117.362 42.1863 122.69 44.0744 127.684 46.6687C137.406 51.7623 145.554 59.4218 151.25 68.8199C156.945 78.2179 159.971 88.9974 160 99.9939H159.988ZM151.875 95.5891C151.185 87.5334 148.641 79.7478 144.444 72.8437C140.247 65.9397 134.51 60.1051 127.684 55.7982C125.177 54.202 122.531 52.8349 119.78 51.7133C118.872 51.3319 117.951 50.9751 117.018 50.6552L111.863 49.1664V95.5891H151.875ZM54.2639 99.9939C54.2719 108.64 56.7147 117.108 61.3114 124.424C65.908 131.74 72.4716 137.606 80.2469 141.347V132.316C72.5741 127.614 66.8262 120.323 64.0365 111.752C61.2468 103.182 61.5983 93.8951 65.0278 85.5614H96.0306V77.6376H69.483C72.5989 73.3697 76.57 69.8014 81.1415 67.1614C85.7131 64.5214 90.7845 62.8679 96.0306 62.307V54.3464C84.6397 55.3513 74.0363 60.5934 66.3068 69.0411C58.5772 77.4888 54.2812 88.5306 54.2639 99.9939Z" fill="#F2F0EB"/>
</svg>
