<svg width="200" height="200" viewBox="0 0 200 200" fill="none" xmlns="http://www.w3.org/2000/svg">
<rect width="200" height="200" rx="99" fill="#1A1A1A"/>
<g clip-path="url(#clip0_63_1527)">
<path d="M130.193 95.3134C125.687 96.0344 123.523 99.2791 123.523 105.047C123.523 110.816 126.588 114.781 131.094 114.781C135.601 114.781 135.24 114.06 139.386 112.077V116.764C134.519 119.107 131.635 119.648 127.489 119.648C123.343 119.648 120.099 118.567 117.755 116.043C115.232 113.519 113.97 110.094 113.97 106.489C113.97 98.1975 120.099 92.6095 129.111 92.6095C138.124 92.6095 139.206 95.3134 139.206 99.2791C139.206 103.245 137.223 103.605 134.519 103.605C131.815 103.605 131.815 103.245 130.373 102.343V95.3134H130.193ZM108.382 106.309C112.348 101.262 113.79 99.2791 113.79 96.7555C113.79 94.2319 111.807 92.249 109.283 92.249C106.76 92.249 106.219 92.9701 105.498 93.8713V104.146L99.0085 112.798V92.9701H92.8797L82.6051 110.094V92.9701H78.9999L69.6266 95.3134V97.6567L74.6738 98.1975V119.107H81.3433L91.2574 102.884V119.107H98.4677L108.562 106.309H108.382ZM49.9785 98.3778C51.4206 98.3778 52.3219 98.0173 53.0429 98.0173C57.3691 98.0173 59.7124 100.901 59.7124 106.309C59.7124 111.717 56.8283 116.043 51.6008 116.043C46.3734 116.043 50.8798 116.043 50.1588 116.043V98.558L49.9785 98.3778ZM49.9785 118.927C51.6008 118.927 53.4034 118.927 54.3047 118.927C63.1373 118.927 68.7253 113.339 68.7253 104.867C68.7253 96.3949 64.5794 92.4293 58.8111 92.4293C53.0429 92.4293 54.6652 92.9701 49.9785 95.8542V92.4293H47.2747L37 95.4937V98.0173H41.3262V127.219L37.5408 128.12V130.464H54.3047V128.12L49.9785 127.219V118.747V118.927Z" fill="#F2F0EB"/>
<path d="M125.506 85.3993H97.5664L102.253 77.4679H130.193L125.506 85.3993ZM163 69.5366H135.06L130.373 77.4679H158.313L163 69.5366Z" fill="#F2F0EB"/>
</g>
<defs>
<clipPath id="clip0_63_1527">
<rect width="128" height="60.9271" fill="white" transform="translate(36 69.5366)"/>
</clipPath>
</defs>
</svg>
