<svg width="200" height="200" viewBox="0 0 200 200" fill="none" xmlns="http://www.w3.org/2000/svg">
<rect width="200" height="200" rx="99" fill="#1A1A1A"/>
<path d="M41.2538 76.5749L58.0701 55.3333L40.59 56.8084L40 49.5804L68.2483 47.1465L68.9121 54.522L52.2434 75.026L71.1247 73.4034L71.7885 80.9265L41.8439 83.5079L41.2538 76.5749Z" fill="#F2F0EB"/>
<path d="M70.3872 46.9993L79.4591 46.188L82.3356 80.0417L73.2637 80.7793L70.3872 46.9993Z" fill="#F2F0EB"/>
<path d="M82.4092 45.9666L91.0386 45.229L91.3336 48.9906C93.5462 45.6716 96.4965 43.8277 100.258 43.4589C104.536 43.0901 107.56 44.344 110.141 47.5892C112.206 44.1227 115.304 42.1313 119.361 41.7625C126.072 41.1725 130.793 45.0078 131.383 51.9408L133.374 75.5425L124.45 76.2801L122.606 54.596C122.311 51.277 120.246 49.5806 117.148 49.8756C113.681 50.1707 111.616 52.7521 111.985 56.8086L113.755 77.3127L104.905 78.0502L103.061 56.3661C102.766 52.9734 100.774 51.277 97.6765 51.572C94.21 51.867 92.1449 54.4485 92.5137 58.5788L94.2838 79.009L85.3594 79.7466L82.4092 45.9666Z" fill="#F2F0EB"/>
<path d="M42.1387 87.1961L50.768 86.4585L51.0631 90.2201C53.2757 86.9011 56.2997 85.0572 59.9875 84.6884C64.2653 84.3196 67.2892 85.5735 69.8707 88.8187C71.9358 85.3522 75.0336 83.3608 79.0901 82.992C85.8756 82.402 90.5222 86.2373 91.1122 93.1703L93.1036 116.772L84.1792 117.51L82.3353 95.7517C82.0403 92.4327 79.9752 90.7363 76.8774 91.0314C73.4109 91.3264 71.3458 93.9816 71.7146 97.9644L73.4847 118.468L64.634 119.206L62.7902 97.5218C62.4951 94.1291 60.5038 92.4327 57.406 92.7277C53.9395 93.0228 51.8744 95.6042 52.2432 99.7345L54.0133 120.165L45.0889 120.902L42.1387 87.1961Z" fill="#F2F0EB"/>
<path d="M124.745 103.865C123.491 111.093 118.107 115.887 110.068 116.625C100.48 117.436 93.5467 111.093 92.5879 99.7346C91.629 88.6713 97.0869 81.2957 106.823 80.4844C117.148 79.5993 123.639 85.5735 124.598 97.2269C124.671 97.9645 124.745 98.7758 124.745 99.5871L102.176 101.505C102.914 106.741 105.495 109.323 109.847 108.954C112.871 108.659 114.788 107.405 115.673 104.676L124.745 103.865ZM115.009 94.4242C114.493 89.8514 111.912 87.6387 107.708 88.0075C103.799 88.3762 101.66 90.9577 101.66 95.6043L115.009 94.4242Z" fill="#F2F0EB"/>
<path d="M124.081 80.1894L132.489 79.4518L133.005 85.2785C134.997 80.4106 137.873 78.0504 142.151 77.6817C142.594 77.6817 143.036 77.6079 143.479 77.6079L144.29 86.7536L141.266 86.9749C136.398 87.4174 134.038 90.1463 134.481 95.2355L136.029 113.158L126.958 113.896L124.081 80.1894Z" fill="#F2F0EB"/>
<path d="M45.3101 124.664L53.9394 123.926L54.2345 127.688C56.4471 124.369 59.3973 122.525 63.1589 122.156C67.4367 121.787 70.4606 123.041 73.0421 126.286C75.1072 122.82 78.2049 120.829 82.2615 120.46C88.9732 119.87 93.6936 123.705 94.2836 130.638L96.275 154.24L87.3506 154.977L85.5067 133.219C85.2117 129.9 83.1465 128.204 80.0488 128.499C76.5823 128.794 74.5172 131.376 74.8859 135.432L76.6561 155.936L67.8054 156.674L65.9616 134.916C65.6665 131.523 63.6751 129.827 60.5774 130.122C57.1109 130.417 55.0458 132.998 55.4145 137.129L57.1847 157.559L48.2603 158.296L45.3101 124.664Z" fill="#F2F0EB"/>
<path d="M107.56 154.608C101.069 155.198 96.9388 151.658 96.3487 144.725C95.7587 138.087 99.0777 134.842 106.896 132.998C113.829 131.302 116.263 131.597 115.968 128.351C115.746 125.549 113.976 124.664 110.067 125.032C106.379 125.327 104.536 127.024 104.757 129.753C104.757 129.974 104.757 130.048 104.831 130.269L96.3487 131.007C96.3487 130.785 96.275 130.564 96.275 130.343C95.6849 123.484 100.405 118.763 109.108 118.026C118.623 117.214 124.007 120.238 124.597 126.286L126.22 145.536C126.441 148.044 126.957 149.446 128.506 150.109L128.654 151.658L119.213 152.469C118.475 151.289 118.033 149.962 117.812 148.339C116.041 152.027 112.501 154.24 107.56 154.608ZM108.887 138.898C106.084 139.931 104.757 141.185 104.978 143.766C105.199 146.274 107.043 147.675 109.772 147.454C114.714 147.012 117.443 143.84 117 139.046L116.705 135.875C113.534 137.792 110.584 138.235 108.887 138.898Z" fill="#F2F0EB"/>
<path d="M126.81 117.731L135.661 116.993L136.029 120.976C138.316 117.51 141.561 115.592 145.839 115.223C153.288 114.56 157.345 118.174 158.009 125.918L160 149.003L150.928 149.815L149.158 129.384C148.789 124.812 147.24 122.746 143.331 123.115C139.127 123.484 136.62 126.36 136.988 130.859L138.685 150.921L129.613 151.659L126.81 117.731Z" fill="#F2F0EB"/>
</svg>
