<svg width="200" height="200" viewBox="0 0 200 200" fill="none" xmlns="http://www.w3.org/2000/svg">
<rect width="200" height="200" rx="99" fill="#1A1A1A"/>
<g clip-path="url(#clip0_63_1436)">
<path d="M37 105.021C37 95.3637 43.4797 88.6401 52.7091 88.6401C58.9424 88.6401 64.0162 91.7581 66.0318 96.5855C66.2502 97.0211 66.3554 97.5046 66.3379 97.9915C66.3386 98.243 66.2876 98.492 66.188 98.7229C66.0884 98.9538 65.9423 99.1618 65.7588 99.3338C65.5753 99.5058 65.3584 99.6383 65.1216 99.7228C64.8847 99.8074 64.633 99.8423 64.382 99.8254C63.9416 99.8232 63.5136 99.6792 63.1613 99.4148C62.8091 99.1504 62.5513 98.7796 62.4262 98.3573C60.8386 94.4455 57.2329 92.1836 52.7091 92.1836C45.8014 92.1836 40.9739 97.4416 40.9739 105.021C40.9739 112.539 45.7416 117.794 52.7091 117.794C57.2329 117.794 60.6544 115.594 62.4884 111.011C62.6029 110.594 62.8493 110.226 63.1907 109.961C63.5321 109.697 63.9501 109.55 64.382 109.543C64.6398 109.539 64.8956 109.588 65.1344 109.685C65.3732 109.782 65.5901 109.926 65.7724 110.108C65.9547 110.29 66.0986 110.507 66.1958 110.746C66.2929 110.985 66.3412 111.241 66.3379 111.498C66.3356 111.938 66.2529 112.373 66.094 112.782C64.1382 118.038 59.1266 121.4 52.7091 121.4C43.4175 121.4 37 114.676 37 105.021Z" fill="#F2F0EB"/>
<path d="M89.4253 118.712C89.4253 120.056 88.6912 120.912 87.4097 120.912C86.1257 120.912 85.4539 120.056 85.4539 118.712L85.4526 80.8028C85.4526 79.3969 86.1867 78.6006 87.4707 78.6006C88.7547 78.6006 89.4266 79.3969 89.4266 80.8028V89.434H96.2658C97.4876 89.434 98.2217 90.1058 98.2217 91.2057C98.2217 92.3081 97.4876 92.9799 96.2658 92.9799H89.4266L89.4253 118.712Z" fill="#F2F0EB"/>
<path d="M120.04 91.574C120.047 91.83 120.001 92.0845 119.904 92.3216C119.808 92.5587 119.663 92.7731 119.479 92.9512C119.295 93.1293 119.076 93.2672 118.836 93.3561C118.596 93.445 118.34 93.483 118.084 93.4677C117.568 93.4454 117.064 93.2985 116.616 93.0397C115.622 92.5756 114.535 92.3458 113.438 92.3678C109.221 92.3678 106.471 96.0357 106.471 100.682V118.712C106.471 120.116 105.799 120.912 104.515 120.912C103.231 120.912 102.497 120.116 102.497 118.712V91.3302C102.497 89.9242 103.231 89.128 104.515 89.128C105.799 89.128 106.471 89.9242 106.471 91.3302V92.124C107.345 91.0051 108.47 90.1071 109.754 89.502C111.039 88.897 112.447 88.6018 113.866 88.6402C115.659 88.5525 117.439 88.9762 119 89.862C119.311 90.0275 119.572 90.2739 119.755 90.5751C119.938 90.8764 120.037 91.2215 120.04 91.574Z" fill="#F2F0EB"/>
<path d="M124.072 91.3306C124.072 89.9247 124.803 89.1284 126.087 89.1284C127.371 89.1284 128.043 89.9247 128.043 91.3306V118.713C128.043 120.057 127.309 120.913 126.028 120.913C124.744 120.913 124.072 120.057 124.072 118.713V91.3306Z" fill="#F2F0EB"/>
<path d="M73.3169 91.3297C73.3169 89.9237 74.0485 89.1274 75.3325 89.1274C76.6165 89.1274 77.2883 89.9237 77.2883 91.3297V118.712C77.2883 120.056 76.5543 120.912 75.2728 120.912C73.9888 120.912 73.3169 120.056 73.3169 118.712V91.3297Z" fill="#F2F0EB"/>
<path d="M75.3028 84.844C77.0269 84.844 78.4245 83.4463 78.4245 81.7223C78.4245 79.9982 77.0269 78.6006 75.3028 78.6006C73.5788 78.6006 72.1812 79.9982 72.1812 81.7223C72.1812 83.4463 73.5788 84.844 75.3028 84.844Z" fill="#F2F0EB"/>
<path d="M148.698 107.465L137.88 120.116C137.698 120.366 137.458 120.569 137.182 120.707C136.905 120.846 136.599 120.916 136.29 120.912C136.044 120.918 135.801 120.874 135.572 120.785C135.344 120.695 135.136 120.561 134.96 120.391C134.783 120.22 134.643 120.016 134.546 119.791C134.449 119.566 134.398 119.323 134.396 119.078C134.395 118.557 134.592 118.055 134.946 117.672L146.253 104.898L135.374 92.4301C134.969 92.0454 134.729 91.5195 134.702 90.962C134.706 90.712 134.761 90.4654 134.862 90.2369C134.964 90.0084 135.11 89.8025 135.292 89.6315C135.475 89.4605 135.69 89.3278 135.924 89.2414C136.159 89.1549 136.408 89.1163 136.658 89.128C136.957 89.1324 137.251 89.2066 137.516 89.3449C137.782 89.4832 138.011 89.6816 138.186 89.9243L148.698 102.269L159.21 89.9243C159.385 89.6816 159.614 89.4832 159.879 89.3449C160.145 89.2066 160.439 89.1324 160.738 89.128C160.988 89.1163 161.237 89.1549 161.472 89.2414C161.706 89.3278 161.921 89.4605 162.104 89.6315C162.286 89.8025 162.432 90.0084 162.533 90.2369C162.635 90.4654 162.689 90.712 162.694 90.962C162.667 91.5195 162.426 92.0454 162.022 92.4301L151.143 104.898L162.45 117.672C162.804 118.055 163 118.557 163 119.078C162.997 119.323 162.946 119.566 162.85 119.791C162.753 120.016 162.612 120.22 162.436 120.391C162.26 120.561 162.052 120.695 161.823 120.785C161.595 120.874 161.351 120.918 161.106 120.912C160.797 120.916 160.491 120.846 160.214 120.707C159.938 120.569 159.698 120.366 159.516 120.116L148.698 107.465Z" fill="#F2F0EB"/>
<path d="M148.698 84.844C150.422 84.844 151.82 83.4463 151.82 81.7223C151.82 79.9982 150.422 78.6006 148.698 78.6006C146.974 78.6006 145.577 79.9982 145.577 81.7223C145.577 83.4463 146.974 84.844 148.698 84.844Z" fill="#F2F0EB"/>
</g>
<defs>
<clipPath id="clip0_63_1436">
<rect width="128" height="42.799" fill="white" transform="translate(36 78.6006)"/>
</clipPath>
</defs>
</svg>
