<svg width="200" height="200" viewBox="0 0 200 200" fill="none" xmlns="http://www.w3.org/2000/svg">
<rect width="200" height="200" rx="99" fill="#1A1A1A"/>
<path d="M117.783 63.7778C117.783 63.7778 78.6546 43.7529 46.6114 54.9231C46.6114 54.9231 44.5894 54.8416 42.8201 57.5811C40.9203 60.2392 39.3222 62.0492 40.2925 64.0305C41.2628 66.0526 46.1956 66.9413 50.6229 65.4248C50.6229 65.4248 52.645 64.161 50.1174 63.313C47.5898 62.4732 46.2038 62.2612 46.2038 62.2612C42.2982 60.8425 64.2881 55.8526 88.1533 62.6852C114.081 69.2651 149.296 90.1787 148.236 112.022C147.266 133.816 113.111 134.786 113.111 134.786C113.111 134.786 106.107 135.17 96.7553 133.392C96.5433 126.266 96.2497 114.044 96.2497 106.665C109.613 106.665 123.066 108.899 124.159 112.275C124.159 112.275 124.836 113.75 121.795 115.226C119.055 116.408 116.902 117.419 119.267 118.512C119.267 118.512 122.643 120.069 124.746 119.906C126.858 119.735 132.255 117.289 132.761 111.386C133.307 105.401 126.393 100.085 116.022 98.3159C108.137 96.7993 103.832 96.2938 96.7553 96.6281C96.6737 90.1379 95.785 81.9926 94.35 80.101C92.5807 77.5734 90.5994 74.1979 89.0339 77.9974C87.7294 81.1528 86.7183 88.3279 86.2944 97.5983C75.4176 99.4084 63.269 104.007 59.5999 108.565C55.6781 113.628 59.5999 117.713 60.0239 118.137C60.2766 118.561 68.2915 130.114 85.5768 137.95C85.9111 141.073 86.5063 144.489 87.6886 146.381C90.3874 150.343 95.2795 147.563 95.8665 146.886C96.372 146.381 96.7063 145.076 96.9183 141.953C104.591 143.975 118.672 146.087 133.601 141.529V141.57C156.161 134.737 159.366 120.697 159.953 112.397C160.63 103.966 154.392 82.2454 117.791 63.7778H117.783ZM85.2752 130.53C77.2603 127.66 68.9112 123.07 62.0786 115.772C62.0786 115.772 59.551 113.074 63.1711 111.386C66.5467 109.869 73.7136 107.847 86.115 106.999C86.115 113.367 86.1965 117.876 85.2752 130.53Z" fill="#F2F0EB"/>
</svg>
